<?xml version="1.0" standalone="no"?>
<!DOCTYPE svg PUBLIC "-//W3C//DTD SVG 20010904//EN"
 "http://www.w3.org/TR/2001/REC-SVG-20010904/DTD/svg10.dtd">
<svg version="1.0" xmlns="http://www.w3.org/2000/svg"
 width="512.000000pt" height="512.000000pt" viewBox="0 0 512.000000 512.000000"
 preserveAspectRatio="xMidYMid meet">
<metadata>
Created by potrace 1.11, written by Peter Selinger 2001-2013
</metadata>
<g transform="translate(0.000000,512.000000) scale(0.100000,-0.100000)"
fill="#000000" stroke="none">
<path d="M2450 5105 c-222 -58 -426 -280 -575 -624 -44 -102 -99 -271 -110
-341 -3 -19 -8 -42 -10 -50 -11 -41 -18 -140 -19 -282 -1 -87 -4 -159 -7 -161
-2 -3 -51 -7 -109 -10 -143 -8 -242 -42 -355 -122 -133 -94 -220 -229 -261
-402 -4 -15 -8 -239 -9 -498 -2 -258 -4 -477 -4 -485 -1 -8 -25 -47 -54 -86
-47 -63 -640 -869 -844 -1147 -45 -62 -82 -114 -83 -117 0 -3 221 -6 490 -5
l490 0 1 -25 c1 -14 1 -63 1 -110 0 -47 4 -90 9 -96 5 -6 44 -9 96 -8 48 1 91
0 95 -2 3 -2 -10 -37 -29 -77 -19 -39 -48 -101 -65 -136 -16 -35 -53 -113 -82
-175 -29 -61 -56 -119 -59 -129 -6 -16 32 -17 703 -17 l709 0 -74 152 c-148
310 -175 371 -170 377 10 9 866 7 872 -2 3 -5 -9 -36 -25 -70 -17 -34 -53
-109 -80 -167 -27 -58 -68 -144 -91 -191 -22 -47 -41 -89 -41 -93 0 -3 317 -6
705 -6 388 0 705 2 705 5 0 7 -39 93 -107 235 -95 198 -133 280 -133 288 0 4
37 7 83 7 l82 0 5 120 5 120 498 0 c274 0 500 2 502 5 2 3 -33 56 -78 117 -45
61 -118 159 -162 219 -44 60 -172 235 -285 389 -113 154 -241 327 -283 385
-42 58 -80 110 -85 115 -4 6 -31 42 -60 81 l-51 70 -3 490 -3 489 -28 69 c-43
108 -84 172 -156 244 -124 124 -261 184 -423 186 -80 1 -98 4 -99 16 0 8 -1
76 -1 150 -1 219 -31 393 -104 586 -137 367 -338 618 -563 705 -66 26 -201 33
-271 14z"/>
</g>
</svg>
